<?xml version="1.0" encoding="UTF-8"?><svg id="Layer_2" xmlns="http://www.w3.org/2000/svg" viewBox="0 0 210.59 14.3"><defs><style>.cls-1{fill:#334155;}</style></defs><g id="Layer_1-2"><g id="Layer_2-2"><g id="Layer_1-2"><path class="cls-1" d="M0,.08H11.86V3.08H7.71V13.91h-3.61V3.06H0V.08Z"/><path class="cls-1" d="M20.51,10.3c.52,.54,1.25,.82,2,.79,.71,.03,1.4-.26,1.88-.78,.5-.58,.76-1.33,.72-2.1V.08h3.61V8.21c.03,1.1-.24,2.18-.76,3.15-.5,.89-1.26,1.62-2.17,2.08-1.02,.51-2.16,.76-3.3,.73-1.15,.03-2.29-.22-3.33-.73-.92-.46-1.69-1.19-2.21-2.08-.54-.96-.81-2.05-.78-3.15V.08h3.61V8.21c-.05,.77,.22,1.52,.73,2.09Z"/><path class="cls-1" d="M41.17,13.91l-2-3.82h-2.7v3.82h-3.61V.08h6.22c1.52-.09,3.03,.36,4.25,1.28,1.03,.9,1.58,2.22,1.51,3.58,.02,.94-.19,1.86-.63,2.69-.43,.76-1.07,1.37-1.84,1.77l2.88,4.51h-4.08Zm-4.7-6.7h2.63c.62,.04,1.23-.16,1.7-.56,.43-.41,.65-1,.6-1.59,.03-.58-.18-1.14-.6-1.55-.48-.38-1.09-.56-1.7-.51h-2.63V7.21Z"/><path class="cls-1" d="M58.31,.08h3.36V13.91h-3.16l-6.27-8.26V13.91h-3.38V.08h3.14l6.29,8.33,.02-8.33Z"/><path class="cls-1" d="M79.38,13.91h-4.32l-3.63-5.36-1.73,1.93v3.43h-3.61V.08h3.61V6.08L74.88,.08h4.19l-5.13,5.71,5.44,8.12Z"/><path class="cls-1" d="M82.58,.08h10.91V3h-7.3v2.55h6.59v2.86h-6.59v2.59h7.49v2.88h-11.1V.08Z"/><path class="cls-1" d="M110.75,.08l-5,9.41v4.42h-3.61v-4.32L97.06,.08h3.61l3.33,5.92L107.14,.08h3.61Z"/><path class="cls-1" d="M131.56,1.08c1.07,.55,1.97,1.39,2.58,2.43,.63,1.09,.95,2.33,.93,3.59,.02,1.26-.3,2.51-.94,3.6-.62,1.05-1.54,1.89-2.63,2.43-1.22,.6-2.56,.9-3.91,.87h-5.8V.22h5.94c1.33-.03,2.64,.27,3.83,.86Zm-1.88,9.52c.55-.33,.98-.82,1.26-1.4,.31-.64,.46-1.35,.45-2.06,.01-.73-.15-1.44-.48-2.09-.3-.58-.76-1.07-1.33-1.4-.58-.34-1.25-.52-1.93-.5h-2.26v7.94h2.44c.65,.01,1.29-.16,1.85-.49Z"/><path class="cls-1" d="M138.75,.22h3.59V14h-3.59V.22Z"/><path class="cls-1" d="M155.59,7h3.1v5.49c-.82,.58-1.73,1.02-2.7,1.31-.97,.31-1.98,.48-3,.5-1.31,.02-2.61-.3-3.76-.94-1.1-.6-2.02-1.48-2.65-2.56-.66-1.11-1.01-2.37-1-3.66-.01-1.28,.33-2.54,1-3.63,.65-1.09,1.59-1.99,2.72-2.59,1.2-.62,2.54-.94,3.89-.92,1.04,0,2.08,.2,3.06,.56,.95,.33,1.84,.84,2.6,1.5l-2,2.52c-.51-.47-1.09-.85-1.73-1.12-.6-.26-1.25-.4-1.91-.41-.7-.02-1.4,.17-2,.53-.59,.34-1.09,.83-1.43,1.42-.34,.64-.52,1.35-.51,2.07-.01,.73,.16,1.45,.51,2.09,.33,.61,.82,1.12,1.42,1.47,.61,.35,1.3,.54,2,.53,.83-.04,1.65-.27,2.38-.67v-3.49Z"/><path class="cls-1" d="M163,.22h3.6V14h-3.6V.22Z"/><path class="cls-1" d="M169.92,.22h11.82V3.22h-4.13V14h-3.61V3.19h-4.09V.22Z"/><path class="cls-1" d="M194.18,14l-.94-2.44h-6l-1,2.44h-3.7L188.54,.22h3.7l5.76,13.78h-3.82Zm-5.81-5.19h3.81l-1.89-4.92-1.92,4.92Z"/><path class="cls-1" d="M201.15,.22h3.6V10.93h5.84v3.07h-9.44V.22Z"/></g></g></g></svg>