<?xml version="1.0" encoding="UTF-8"?> <svg xmlns="http://www.w3.org/2000/svg" viewBox="0 0 210.59 14.26"><defs><style>.cls-1{fill:#fff;}</style></defs><g id="Layer_2" data-name="Layer 2"><g id="Layer_1-2" data-name="Layer 1"><path class="cls-1" d="M0,.08H11.86v3H7.71V13.91H4.1V3.06H0Z"></path><path class="cls-1" d="M20.51,10.3a2.62,2.62,0,0,0,2,.79,2.44,2.44,0,0,0,1.88-.78,3,3,0,0,0,.72-2.1V.08h3.61V8.21a6.28,6.28,0,0,1-.76,3.15,5.19,5.19,0,0,1-2.17,2.08,7,7,0,0,1-3.3.73,7.17,7.17,0,0,1-3.33-.73,5.29,5.29,0,0,1-2.21-2.08,6.18,6.18,0,0,1-.78-3.15V.08h3.61V8.21A2.86,2.86,0,0,0,20.51,10.3Z"></path><path class="cls-1" d="M41.17,13.91l-2-3.82H36.47v3.82H32.86V.08h6.22a6.42,6.42,0,0,1,4.25,1.28,4.43,4.43,0,0,1,1.51,3.58,5.46,5.46,0,0,1-.63,2.69A4.49,4.49,0,0,1,42.37,9.4l2.88,4.51Zm-4.7-6.7H39.1a2.42,2.42,0,0,0,1.7-.56,2,2,0,0,0,.6-1.59,2,2,0,0,0-.6-1.55A2.46,2.46,0,0,0,39.1,3H36.47Z"></path><path class="cls-1" d="M58.31.08h3.36V13.91H58.51L52.24,5.65v8.26H48.86V.08H52l6.29,8.33Z"></path><path class="cls-1" d="M79.38,13.91H75.06L71.43,8.55,69.7,10.48v3.43H66.09V.08H69.7v6l5.18-6h4.19L73.94,5.79Z"></path><path class="cls-1" d="M82.58.08H93.49V3h-7.3V5.55h6.59V8.41l-6.59,0V11h7.49v2.88H82.58Z"></path><path class="cls-1" d="M110.75.08l-5,9.41v4.42h-3.61V9.59L97.06.08h3.61L104,6,107.14.08Z"></path><path class="cls-1" d="M131.56,1.08a6.37,6.37,0,0,1,2.58,2.43,6.88,6.88,0,0,1,.93,3.59,6.86,6.86,0,0,1-.94,3.6,6.25,6.25,0,0,1-2.63,2.43,8.49,8.49,0,0,1-3.91.87h-5.8V.22h5.94A8.16,8.16,0,0,1,131.56,1.08Zm-1.88,9.52a3.3,3.3,0,0,0,1.26-1.4,4.56,4.56,0,0,0,.45-2.06,4.41,4.41,0,0,0-.48-2.09,3.52,3.52,0,0,0-1.33-1.4,3.66,3.66,0,0,0-1.93-.5h-2.26v7.94h2.44A3.46,3.46,0,0,0,129.68,10.6Z"></path><path class="cls-1" d="M138.75.22h3.59V14h-3.59Z"></path><path class="cls-1" d="M155.59,7h3.1v5.49a9.18,9.18,0,0,1-2.7,1.31,10.32,10.32,0,0,1-3,.5,7.52,7.52,0,0,1-3.76-.94,6.87,6.87,0,0,1-2.65-2.56,7.09,7.09,0,0,1-1-3.66,6.82,6.82,0,0,1,1-3.63A7,7,0,0,1,149.3.92,8.24,8.24,0,0,1,153.19,0a8.93,8.93,0,0,1,3.06.56,8,8,0,0,1,2.6,1.5l-2,2.52a5.92,5.92,0,0,0-1.73-1.12,4.9,4.9,0,0,0-1.91-.41,3.73,3.73,0,0,0-2,.53A3.9,3.9,0,0,0,149.78,5a4.23,4.23,0,0,0-.51,2.07,4.28,4.28,0,0,0,.51,2.09,3.86,3.86,0,0,0,1.42,1.47,3.92,3.92,0,0,0,2,.53,5.44,5.44,0,0,0,2.38-.67Z"></path><path class="cls-1" d="M163,.22h3.6V14H163Z"></path><path class="cls-1" d="M169.92.22h11.82v3h-4.13V14H174V3.19h-4.09Z"></path><path class="cls-1" d="M194.18,14l-.94-2.44h-6l-1,2.44h-3.7L188.54.22h3.7L198,14Zm-5.81-5.19h3.81l-1.89-4.92Z"></path><path class="cls-1" d="M201.15.22h3.6V10.93h5.84V14h-9.44Z"></path></g></g></svg> 